%TF.GenerationSoftware,KiCad,Pcbnew,9.0.8*%
%TF.CreationDate,2026-08-11T07:52:59+05:30*%
%TF.ProjectId,FPGA BOARD,46504741-2042-44f4-9152-442e6b696361,rev?*%
%TF.SameCoordinates,Original*%
%TF.FileFunction,Paste,Bot*%
%TF.FilePolarity,Positive*%
%FSLAX46Y46*%
G04 Gerber Fmt 4.6, Leading zero omitted, Abs format (unit mm)*
G04 Created by KiCad (PCBNEW 9.0.8) date 2026-08-11 07:52:59*
%MOMM*%
%LPD*%
G01*
G04 APERTURE LIST*
G04 Aperture macros list*
%AMRoundRect*
0 Rectangle with rounded corners*
0 $1 Rounding radius*
0 $2 $3 $4 $5 $6 $7 $8 $9 X,Y pos of 4 corners*
0 Add a 4 corners polygon primitive as box body*
4,1,4,$2,$3,$4,$5,$6,$7,$8,$9,$2,$3,0*
0 Add four circle primitives for the rounded corners*
1,1,$1+$1,$2,$3*
1,1,$1+$1,$4,$5*
1,1,$1+$1,$6,$7*
1,1,$1+$1,$8,$9*
0 Add four rect primitives between the rounded corners*
20,1,$1+$1,$2,$3,$4,$5,0*
20,1,$1+$1,$4,$5,$6,$7,0*
20,1,$1+$1,$6,$7,$8,$9,0*
20,1,$1+$1,$8,$9,$2,$3,0*%
G04 Aperture macros list end*
%ADD10RoundRect,0.237500X0.237500X-0.250000X0.237500X0.250000X-0.237500X0.250000X-0.237500X-0.250000X0*%
%ADD11RoundRect,0.237500X-0.300000X-0.237500X0.300000X-0.237500X0.300000X0.237500X-0.300000X0.237500X0*%
%ADD12RoundRect,0.237500X0.250000X0.237500X-0.250000X0.237500X-0.250000X-0.237500X0.250000X-0.237500X0*%
%ADD13RoundRect,0.237500X-0.237500X0.250000X-0.237500X-0.250000X0.237500X-0.250000X0.237500X0.250000X0*%
%ADD14RoundRect,0.237500X-0.237500X0.300000X-0.237500X-0.300000X0.237500X-0.300000X0.237500X0.300000X0*%
%ADD15RoundRect,0.237500X-0.287500X-0.237500X0.287500X-0.237500X0.287500X0.237500X-0.287500X0.237500X0*%
%ADD16RoundRect,0.237500X-0.237500X0.287500X-0.237500X-0.287500X0.237500X-0.287500X0.237500X0.287500X0*%
%ADD17RoundRect,0.237500X-0.250000X-0.237500X0.250000X-0.237500X0.250000X0.237500X-0.250000X0.237500X0*%
%ADD18RoundRect,0.237500X0.300000X0.237500X-0.300000X0.237500X-0.300000X-0.237500X0.300000X-0.237500X0*%
%ADD19RoundRect,0.237500X0.237500X-0.287500X0.237500X0.287500X-0.237500X0.287500X-0.237500X-0.287500X0*%
%ADD20RoundRect,0.237500X0.237500X-0.300000X0.237500X0.300000X-0.237500X0.300000X-0.237500X-0.300000X0*%
G04 APERTURE END LIST*
D10*
%TO.C,R16*%
X180250000Y-80250000D03*
X180250000Y-78425000D03*
%TD*%
D11*
%TO.C,C26*%
X170300000Y-71125000D03*
X172025000Y-71125000D03*
%TD*%
D12*
%TO.C,R14*%
X165887500Y-64425000D03*
X164062500Y-64425000D03*
%TD*%
D13*
%TO.C,R15*%
X178650000Y-78412500D03*
X178650000Y-80237500D03*
%TD*%
D12*
%TO.C,R19*%
X161700000Y-73325000D03*
X159875000Y-73325000D03*
%TD*%
D14*
%TO.C,C30*%
X166400000Y-79500000D03*
X166400000Y-81225000D03*
%TD*%
D15*
%TO.C,D2*%
X133177767Y-62387147D03*
X134927767Y-62387147D03*
%TD*%
D14*
%TO.C,C8*%
X136327767Y-79087147D03*
X136327767Y-80812147D03*
%TD*%
D16*
%TO.C,D4*%
X167475000Y-64487500D03*
X167475000Y-66237500D03*
%TD*%
D14*
%TO.C,C25*%
X168250000Y-79637500D03*
X168250000Y-81362500D03*
%TD*%
D17*
%TO.C,R9*%
X128902767Y-79987147D03*
X130727767Y-79987147D03*
%TD*%
D18*
%TO.C,C27*%
X161700000Y-77000000D03*
X159975000Y-77000000D03*
%TD*%
D12*
%TO.C,R2*%
X105250000Y-76000000D03*
X103425000Y-76000000D03*
%TD*%
D10*
%TO.C,R23*%
X131527767Y-64187147D03*
X131527767Y-62362147D03*
%TD*%
D18*
%TO.C,C9*%
X127927767Y-71387147D03*
X126202767Y-71387147D03*
%TD*%
D19*
%TO.C,D3*%
X109300000Y-73800000D03*
X109300000Y-72050000D03*
%TD*%
D12*
%TO.C,R13*%
X155818187Y-77685219D03*
X153993187Y-77685219D03*
%TD*%
D13*
%TO.C,R7*%
X177000000Y-76675000D03*
X177000000Y-78500000D03*
%TD*%
%TO.C,R17*%
X109300000Y-75375000D03*
X109300000Y-77200000D03*
%TD*%
D12*
%TO.C,R1*%
X105325000Y-73250000D03*
X103500000Y-73250000D03*
%TD*%
D20*
%TO.C,C12*%
X136327767Y-76387147D03*
X136327767Y-74662147D03*
%TD*%
D17*
%TO.C,R12*%
X150593187Y-78885219D03*
X152418187Y-78885219D03*
%TD*%
D10*
%TO.C,R18*%
X163500000Y-67912500D03*
X163500000Y-66087500D03*
%TD*%
M02*
