%TF.GenerationSoftware,KiCad,Pcbnew,9.0.8*%
%TF.CreationDate,2026-08-11T07:52:59+05:30*%
%TF.ProjectId,FPGA BOARD,46504741-2042-44f4-9152-442e6b696361,rev?*%
%TF.SameCoordinates,Original*%
%TF.FileFunction,Legend,Top*%
%TF.FilePolarity,Positive*%
%FSLAX46Y46*%
G04 Gerber Fmt 4.6, Leading zero omitted, Abs format (unit mm)*
G04 Created by KiCad (PCBNEW 9.0.8) date 2026-08-11 07:52:59*
%MOMM*%
%LPD*%
G01*
G04 APERTURE LIST*
%ADD10C,0.150000*%
%ADD11C,0.120000*%
%ADD12C,0.200000*%
%ADD13C,0.250000*%
%ADD14C,0.152400*%
G04 APERTURE END LIST*
D10*
X159103500Y-65216619D02*
X159103500Y-65454714D01*
X158865405Y-65359476D02*
X159103500Y-65454714D01*
X159103500Y-65454714D02*
X159341595Y-65359476D01*
X158960643Y-65645190D02*
X159103500Y-65454714D01*
X159103500Y-65454714D02*
X159246357Y-65645190D01*
D11*
%TO.C,U6*%
X149645687Y-75520219D02*
X155165687Y-75520219D01*
X149645687Y-75790219D02*
X149645687Y-75520219D01*
X149645687Y-81040219D02*
X149645687Y-80770219D01*
X155165687Y-75520219D02*
X155165687Y-75790219D01*
X155165687Y-80770219D02*
X155165687Y-81040219D01*
X155165687Y-81040219D02*
X149645687Y-81040219D01*
X148815687Y-75780219D02*
X148475687Y-75310219D01*
X149155687Y-75310219D01*
X148815687Y-75780219D01*
G36*
X148815687Y-75780219D02*
G01*
X148475687Y-75310219D01*
X149155687Y-75310219D01*
X148815687Y-75780219D01*
G37*
%TO.C,C3*%
X110533767Y-62490000D02*
X110241233Y-62490000D01*
X110533767Y-63510000D02*
X110241233Y-63510000D01*
%TO.C,C24*%
X160933767Y-77490000D02*
X160641233Y-77490000D01*
X160933767Y-78510000D02*
X160641233Y-78510000D01*
%TO.C,FB1*%
X110203733Y-81990000D02*
X110546267Y-81990000D01*
X110203733Y-83010000D02*
X110546267Y-83010000D01*
%TO.C,C23*%
X165966233Y-83990000D02*
X166258767Y-83990000D01*
X165966233Y-85010000D02*
X166258767Y-85010000D01*
%TO.C,C13*%
X132317767Y-68770914D02*
X132317767Y-68478380D01*
X133337767Y-68770914D02*
X133337767Y-68478380D01*
%TO.C,FB4*%
X123331500Y-74427147D02*
X123674034Y-74427147D01*
X123331500Y-75447147D02*
X123674034Y-75447147D01*
%TO.C,R20*%
X140960543Y-75864647D02*
X141469991Y-75864647D01*
X140960543Y-76909647D02*
X141469991Y-76909647D01*
%TO.C,C16*%
X135317767Y-68770914D02*
X135317767Y-68478380D01*
X136337767Y-68770914D02*
X136337767Y-68478380D01*
%TO.C,D6*%
X177915000Y-75890000D02*
X177915000Y-78350000D01*
X179385000Y-75890000D02*
X177915000Y-75890000D01*
X179385000Y-78350000D02*
X179385000Y-75890000D01*
%TO.C,U3*%
X113702500Y-61990000D02*
X115522500Y-61990000D01*
X113702500Y-62040000D02*
X113702500Y-61990000D01*
X113702500Y-65110000D02*
X113702500Y-65060000D01*
X115522500Y-61990000D02*
X115522500Y-62040000D01*
X115522500Y-63160000D02*
X115522500Y-63940000D01*
X115522500Y-65060000D02*
X115522500Y-65110000D01*
X115522500Y-65110000D02*
X113702500Y-65110000D01*
X113162500Y-62040000D02*
X112922500Y-61710000D01*
X113402500Y-61710000D01*
X113162500Y-62040000D01*
G36*
X113162500Y-62040000D02*
G01*
X112922500Y-61710000D01*
X113402500Y-61710000D01*
X113162500Y-62040000D01*
G37*
%TO.C,C21*%
X156984420Y-74375219D02*
X157276954Y-74375219D01*
X156984420Y-75395219D02*
X157276954Y-75395219D01*
D12*
%TO.C,IC1*%
X127989767Y-72537147D02*
X137289767Y-72537147D01*
X127989767Y-81837147D02*
X127989767Y-72537147D01*
X137289767Y-72537147D02*
X137289767Y-81837147D01*
X137289767Y-81837147D02*
X127989767Y-81837147D01*
D13*
X126539767Y-72687147D02*
G75*
G02*
X126289767Y-72687147I-125000J0D01*
G01*
X126289767Y-72687147D02*
G75*
G02*
X126539767Y-72687147I125000J0D01*
G01*
D11*
%TO.C,C22*%
X167415000Y-68821267D02*
X167415000Y-68528733D01*
X168435000Y-68821267D02*
X168435000Y-68528733D01*
%TO.C,R4*%
X172854724Y-77202500D02*
X172345276Y-77202500D01*
X172854724Y-78247500D02*
X172345276Y-78247500D01*
%TO.C,C4*%
X117240000Y-63491233D02*
X117240000Y-63783767D01*
X118260000Y-63491233D02*
X118260000Y-63783767D01*
%TO.C,Y2*%
X171687500Y-78805000D02*
X177287500Y-78805000D01*
X171687500Y-78865000D02*
X171687500Y-78805000D01*
X171687500Y-83945000D02*
X171687500Y-81185000D01*
X171687500Y-86325000D02*
X171687500Y-86265000D01*
X177287500Y-78805000D02*
X177287500Y-78865000D01*
X177287500Y-81185000D02*
X177287500Y-83945000D01*
X177287500Y-83945000D02*
X177747500Y-83945000D01*
X177287500Y-86265000D02*
X177287500Y-86325000D01*
X177287500Y-86325000D02*
X171687500Y-86325000D01*
X177747500Y-86265000D02*
X177287500Y-86265000D01*
%TO.C,FB3*%
X123331500Y-77427147D02*
X123674034Y-77427147D01*
X123331500Y-78447147D02*
X123674034Y-78447147D01*
%TO.C,C29*%
X173108767Y-86915000D02*
X172816233Y-86915000D01*
X173108767Y-87935000D02*
X172816233Y-87935000D01*
%TO.C,J1*%
X103675000Y-69760000D02*
X105375000Y-69760000D01*
X103675000Y-79100000D02*
X105375000Y-79100000D01*
%TO.C,U2*%
X114452500Y-67390000D02*
X116272500Y-67390000D01*
X114452500Y-67440000D02*
X114452500Y-67390000D01*
X114452500Y-70510000D02*
X114452500Y-70460000D01*
X116272500Y-67390000D02*
X116272500Y-67440000D01*
X116272500Y-70460000D02*
X116272500Y-70510000D01*
X116272500Y-70510000D02*
X114452500Y-70510000D01*
X113912500Y-67440000D02*
X113672500Y-67110000D01*
X114152500Y-67110000D01*
X113912500Y-67440000D01*
G36*
X113912500Y-67440000D02*
G01*
X113672500Y-67110000D01*
X114152500Y-67110000D01*
X113912500Y-67440000D01*
G37*
%TO.C,J2*%
X143870000Y-68420000D02*
X145250000Y-68420000D01*
X143870000Y-69800000D02*
X143870000Y-68420000D01*
X143870000Y-71070000D02*
X143870000Y-83880000D01*
X143870000Y-71070000D02*
X146630000Y-71070000D01*
X143870000Y-83880000D02*
X146630000Y-83880000D01*
X146630000Y-71070000D02*
X146630000Y-83880000D01*
%TO.C,C28*%
X165033767Y-63240000D02*
X164741233Y-63240000D01*
X165033767Y-64260000D02*
X164741233Y-64260000D01*
%TO.C,FB6*%
X172778733Y-91715000D02*
X173121267Y-91715000D01*
X172778733Y-92735000D02*
X173121267Y-92735000D01*
%TO.C,D1*%
X118965000Y-85515000D02*
X118965000Y-86985000D01*
X118965000Y-86985000D02*
X121425000Y-86985000D01*
X121425000Y-85515000D02*
X118965000Y-85515000D01*
%TO.C,C17*%
X120553836Y-72334465D02*
X120760689Y-72541318D01*
X121275085Y-71613216D02*
X121481938Y-71820069D01*
%TO.C,U4*%
X115452500Y-81890000D02*
X117272500Y-81890000D01*
X115452500Y-81940000D02*
X115452500Y-81890000D01*
X115452500Y-85010000D02*
X115452500Y-84960000D01*
X117272500Y-81890000D02*
X117272500Y-81940000D01*
X117272500Y-83060000D02*
X117272500Y-83840000D01*
X117272500Y-84960000D02*
X117272500Y-85010000D01*
X117272500Y-85010000D02*
X115452500Y-85010000D01*
X114912500Y-81940000D02*
X114672500Y-81610000D01*
X115152500Y-81610000D01*
X114912500Y-81940000D01*
G36*
X114912500Y-81940000D02*
G01*
X114672500Y-81610000D01*
X115152500Y-81610000D01*
X114912500Y-81940000D01*
G37*
%TO.C,F1*%
X108977500Y-79332776D02*
X108977500Y-79842224D01*
X110022500Y-79332776D02*
X110022500Y-79842224D01*
%TO.C,R10*%
X130705267Y-67654371D02*
X130705267Y-67144923D01*
X131750267Y-67654371D02*
X131750267Y-67144923D01*
%TO.C,U8*%
X163052500Y-70965000D02*
X163527500Y-70965000D01*
X163052500Y-71440000D02*
X163052500Y-70965000D01*
X163052500Y-78185000D02*
X163052500Y-77710000D01*
X163527500Y-78185000D02*
X163052500Y-78185000D01*
X169797500Y-70965000D02*
X170272500Y-70965000D01*
X170272500Y-70965000D02*
X170272500Y-71440000D01*
X170272500Y-77710000D02*
X170272500Y-78185000D01*
X170272500Y-78185000D02*
X169797500Y-78185000D01*
X169412500Y-70435000D02*
X169172500Y-70105000D01*
X169652500Y-70105000D01*
X169412500Y-70435000D01*
G36*
X169412500Y-70435000D02*
G01*
X169172500Y-70105000D01*
X169652500Y-70105000D01*
X169412500Y-70435000D01*
G37*
%TO.C,U5*%
X122659858Y-62641598D02*
X122727033Y-62574423D01*
X125573138Y-65554878D02*
X122659858Y-62641598D01*
X125640313Y-65487703D02*
X125573138Y-65554878D01*
X126213069Y-59088387D02*
X126280244Y-59021212D01*
X126280244Y-59021212D02*
X129193524Y-61934492D01*
X129193524Y-61934492D02*
X129126349Y-62001667D01*
X125954975Y-66276127D02*
X125615564Y-65936716D01*
X126018615Y-65873076D01*
X125954975Y-66276127D01*
G36*
X125954975Y-66276127D02*
G01*
X125615564Y-65936716D01*
X126018615Y-65873076D01*
X125954975Y-66276127D01*
G37*
%TO.C,C5*%
X173108767Y-90115000D02*
X172816233Y-90115000D01*
X173108767Y-91135000D02*
X172816233Y-91135000D01*
%TO.C,C6*%
X173108767Y-88515000D02*
X172816233Y-88515000D01*
X173108767Y-89535000D02*
X172816233Y-89535000D01*
%TO.C,R8*%
X118583656Y-75381962D02*
X118223422Y-75021728D01*
X119322582Y-74643036D02*
X118962348Y-74282802D01*
%TO.C,D7*%
X179515000Y-75890000D02*
X179515000Y-78350000D01*
X180985000Y-75890000D02*
X179515000Y-75890000D01*
X180985000Y-78350000D02*
X180985000Y-75890000D01*
%TO.C,R3*%
X120977500Y-83245276D02*
X120977500Y-83754724D01*
X122022500Y-83245276D02*
X122022500Y-83754724D01*
%TO.C,SW1*%
X161580000Y-64680000D02*
X165720000Y-64680000D01*
X161580000Y-64980000D02*
X161580000Y-64680000D01*
X161580000Y-67820000D02*
X161580000Y-67520000D01*
X165720000Y-64680000D02*
X165720000Y-64980000D01*
X165720000Y-67520000D02*
X165720000Y-67820000D01*
X165720000Y-67820000D02*
X161580000Y-67820000D01*
%TO.C,C18*%
X125260689Y-68041318D02*
X125053836Y-67834465D01*
X125981938Y-67320069D02*
X125775085Y-67113216D01*
%TO.C,R21*%
X140960543Y-77464647D02*
X141469991Y-77464647D01*
X140960543Y-78509647D02*
X141469991Y-78509647D01*
%TO.C,Y3*%
X123802031Y-67392496D02*
X120888751Y-70305776D01*
X126220337Y-69810802D02*
X123802031Y-67392496D01*
%TO.C,C19*%
X138219000Y-68977147D02*
X138511534Y-68977147D01*
X138219000Y-69997147D02*
X138511534Y-69997147D01*
%TO.C,C31*%
X152258767Y-66740000D02*
X151966233Y-66740000D01*
X152258767Y-67760000D02*
X151966233Y-67760000D01*
%TO.C,C20*%
X120360689Y-62632976D02*
X120153836Y-62839829D01*
X121081938Y-63354225D02*
X120875085Y-63561078D01*
%TO.C,R6*%
X111477500Y-71342224D02*
X111477500Y-70832776D01*
X112522500Y-71342224D02*
X112522500Y-70832776D01*
%TO.C,R22*%
X140960543Y-79064647D02*
X141469991Y-79064647D01*
X140960543Y-80109647D02*
X141469991Y-80109647D01*
%TO.C,R5*%
X115917224Y-65727500D02*
X115407776Y-65727500D01*
X115917224Y-66772500D02*
X115407776Y-66772500D01*
%TO.C,C10*%
X129867767Y-85653380D02*
X129867767Y-85945914D01*
X130887767Y-85653380D02*
X130887767Y-85945914D01*
%TO.C,C7*%
X124367767Y-80403380D02*
X124367767Y-80695914D01*
X125387767Y-80403380D02*
X125387767Y-80695914D01*
%TO.C,FB5*%
X164740000Y-81703733D02*
X164740000Y-82046267D01*
X165760000Y-81703733D02*
X165760000Y-82046267D01*
%TO.C,C32*%
X152258767Y-64990000D02*
X151966233Y-64990000D01*
X152258767Y-66010000D02*
X151966233Y-66010000D01*
D14*
%TO.C,U1*%
X154053850Y-64783900D02*
X158295650Y-64783900D01*
X158295650Y-59526100D02*
X154053850Y-59526100D01*
D11*
%TO.C,C1*%
X112490000Y-83216233D02*
X112490000Y-83508767D01*
X113510000Y-83216233D02*
X113510000Y-83508767D01*
%TO.C,C15*%
X119760689Y-74041318D02*
X119553836Y-73834465D01*
X120481938Y-73320069D02*
X120275085Y-73113216D01*
%TO.C,C14*%
X120367767Y-79153380D02*
X120367767Y-79445914D01*
X121387767Y-79153380D02*
X121387767Y-79445914D01*
%TO.C,F2*%
X108977500Y-69167224D02*
X108977500Y-68657776D01*
X110022500Y-69167224D02*
X110022500Y-68657776D01*
%TO.C,R11*%
X129278187Y-64797801D02*
X129638421Y-64437567D01*
X130017113Y-65536727D02*
X130377347Y-65176493D01*
%TO.C,C2*%
X118990000Y-83353733D02*
X118990000Y-83646267D01*
X120010000Y-83353733D02*
X120010000Y-83646267D01*
%TO.C,D5*%
X174465000Y-75890000D02*
X174465000Y-77360000D01*
X174465000Y-77360000D02*
X176925000Y-77360000D01*
X176925000Y-75890000D02*
X174465000Y-75890000D01*
%TO.C,FB2*%
X110203733Y-65490000D02*
X110546267Y-65490000D01*
X110203733Y-66510000D02*
X110546267Y-66510000D01*
%TO.C,C11*%
X135367767Y-85678380D02*
X135367767Y-85970914D01*
X136387767Y-85678380D02*
X136387767Y-85970914D01*
%TD*%
M02*
