%TF.GenerationSoftware,KiCad,Pcbnew,9.0.8*%
%TF.CreationDate,2026-08-11T07:52:59+05:30*%
%TF.ProjectId,FPGA BOARD,46504741-2042-44f4-9152-442e6b696361,rev?*%
%TF.SameCoordinates,Original*%
%TF.FileFunction,Soldermask,Top*%
%TF.FilePolarity,Negative*%
%FSLAX46Y46*%
G04 Gerber Fmt 4.6, Leading zero omitted, Abs format (unit mm)*
G04 Created by KiCad (PCBNEW 9.0.8) date 2026-08-11 07:52:59*
%MOMM*%
%LPD*%
G01*
G04 APERTURE LIST*
G04 Aperture macros list*
%AMRoundRect*
0 Rectangle with rounded corners*
0 $1 Rounding radius*
0 $2 $3 $4 $5 $6 $7 $8 $9 X,Y pos of 4 corners*
0 Add a 4 corners polygon primitive as box body*
4,1,4,$2,$3,$4,$5,$6,$7,$8,$9,$2,$3,0*
0 Add four circle primitives for the rounded corners*
1,1,$1+$1,$2,$3*
1,1,$1+$1,$4,$5*
1,1,$1+$1,$6,$7*
1,1,$1+$1,$8,$9*
0 Add four rect primitives between the rounded corners*
20,1,$1+$1,$2,$3,$4,$5,0*
20,1,$1+$1,$4,$5,$6,$7,0*
20,1,$1+$1,$6,$7,$8,$9,0*
20,1,$1+$1,$8,$9,$2,$3,0*%
G04 Aperture macros list end*
%ADD10RoundRect,0.162500X-0.650000X-0.162500X0.650000X-0.162500X0.650000X0.162500X-0.650000X0.162500X0*%
%ADD11C,0.700000*%
%ADD12C,4.400000*%
%ADD13RoundRect,0.237500X0.300000X0.237500X-0.300000X0.237500X-0.300000X-0.237500X0.300000X-0.237500X0*%
%ADD14RoundRect,0.237500X-0.287500X-0.237500X0.287500X-0.237500X0.287500X0.237500X-0.287500X0.237500X0*%
%ADD15RoundRect,0.237500X-0.300000X-0.237500X0.300000X-0.237500X0.300000X0.237500X-0.300000X0.237500X0*%
%ADD16RoundRect,0.237500X0.237500X-0.300000X0.237500X0.300000X-0.237500X0.300000X-0.237500X-0.300000X0*%
%ADD17RoundRect,0.237500X-0.250000X-0.237500X0.250000X-0.237500X0.250000X0.237500X-0.250000X0.237500X0*%
%ADD18RoundRect,0.237500X-0.237500X0.287500X-0.237500X-0.287500X0.237500X-0.287500X0.237500X0.287500X0*%
%ADD19RoundRect,0.150000X-0.512500X-0.150000X0.512500X-0.150000X0.512500X0.150000X-0.512500X0.150000X0*%
%ADD20R,1.475000X0.300000*%
%ADD21R,0.300000X1.475000*%
%ADD22RoundRect,0.237500X0.250000X0.237500X-0.250000X0.237500X-0.250000X-0.237500X0.250000X-0.237500X0*%
%ADD23RoundRect,0.237500X-0.237500X0.300000X-0.237500X-0.300000X0.237500X-0.300000X0.237500X0.300000X0*%
%ADD24RoundRect,0.250000X0.750000X-0.650000X0.750000X0.650000X-0.750000X0.650000X-0.750000X-0.650000X0*%
%ADD25C,0.650000*%
%ADD26RoundRect,0.150000X-0.425000X0.150000X-0.425000X-0.150000X0.425000X-0.150000X0.425000X0.150000X0*%
%ADD27RoundRect,0.075000X-0.500000X0.075000X-0.500000X-0.075000X0.500000X-0.075000X0.500000X0.075000X0*%
%ADD28O,2.100000X1.000000*%
%ADD29O,1.800000X1.000000*%
%ADD30R,1.700000X1.700000*%
%ADD31C,1.700000*%
%ADD32RoundRect,0.237500X-0.380070X0.044194X0.044194X-0.380070X0.380070X-0.044194X-0.044194X0.380070X0*%
%ADD33RoundRect,0.237500X-0.237500X0.250000X-0.237500X-0.250000X0.237500X-0.250000X0.237500X0.250000X0*%
%ADD34RoundRect,0.237500X0.237500X-0.250000X0.237500X0.250000X-0.237500X0.250000X-0.237500X-0.250000X0*%
%ADD35RoundRect,0.062500X-0.062500X0.375000X-0.062500X-0.375000X0.062500X-0.375000X0.062500X0.375000X0*%
%ADD36RoundRect,0.062500X-0.375000X0.062500X-0.375000X-0.062500X0.375000X-0.062500X0.375000X0.062500X0*%
%ADD37R,5.600000X5.600000*%
%ADD38RoundRect,0.150000X0.689429X-0.477297X-0.477297X0.689429X-0.689429X0.477297X0.477297X-0.689429X0*%
%ADD39RoundRect,0.237500X0.344715X-0.008839X-0.008839X0.344715X-0.344715X0.008839X0.008839X-0.344715X0*%
%ADD40RoundRect,0.200000X-0.200000X-0.800000X0.200000X-0.800000X0.200000X0.800000X-0.200000X0.800000X0*%
%ADD41RoundRect,0.237500X0.380070X-0.044194X-0.044194X0.380070X-0.380070X0.044194X0.044194X-0.380070X0*%
%ADD42RoundRect,0.250000X0.070711X0.565685X-0.565685X-0.070711X-0.070711X-0.565685X0.565685X0.070711X0*%
%ADD43RoundRect,0.237500X0.044194X0.380070X-0.380070X-0.044194X-0.044194X-0.380070X0.380070X0.044194X0*%
%ADD44R,1.361700X0.558800*%
%ADD45RoundRect,0.237500X-0.008839X-0.344715X0.344715X0.008839X0.008839X0.344715X-0.344715X-0.008839X0*%
G04 APERTURE END LIST*
D10*
%TO.C,U6*%
X148818187Y-76375219D03*
X148818187Y-77645219D03*
X148818187Y-78915219D03*
X148818187Y-80185219D03*
X155993187Y-80185219D03*
X155993187Y-78915219D03*
X155993187Y-77645219D03*
X155993187Y-76375219D03*
%TD*%
D11*
%TO.C,H2*%
X176100000Y-59333274D03*
X176583274Y-58166548D03*
X176583274Y-60500000D03*
X177750000Y-57683274D03*
D12*
X177750000Y-59333274D03*
D11*
X177750000Y-60983274D03*
X178916726Y-58166548D03*
X178916726Y-60500000D03*
X179400000Y-59333274D03*
%TD*%
D13*
%TO.C,C3*%
X111250000Y-63000000D03*
X109525000Y-63000000D03*
%TD*%
%TO.C,C24*%
X161650000Y-78000000D03*
X159925000Y-78000000D03*
%TD*%
D14*
%TO.C,FB1*%
X109500000Y-82500000D03*
X111250000Y-82500000D03*
%TD*%
D15*
%TO.C,C23*%
X165250000Y-84500000D03*
X166975000Y-84500000D03*
%TD*%
D16*
%TO.C,C13*%
X132827767Y-69487147D03*
X132827767Y-67762147D03*
%TD*%
D14*
%TO.C,FB4*%
X122627767Y-74937147D03*
X124377767Y-74937147D03*
%TD*%
D17*
%TO.C,R20*%
X140302767Y-76387147D03*
X142127767Y-76387147D03*
%TD*%
D16*
%TO.C,C16*%
X135827767Y-69487147D03*
X135827767Y-67762147D03*
%TD*%
D18*
%TO.C,D6*%
X178650000Y-76675000D03*
X178650000Y-78425000D03*
%TD*%
D19*
%TO.C,U3*%
X113475000Y-62600000D03*
X113475000Y-63550000D03*
X113475000Y-64500000D03*
X115750000Y-64500000D03*
X115750000Y-62600000D03*
%TD*%
D15*
%TO.C,C21*%
X156268187Y-74885219D03*
X157993187Y-74885219D03*
%TD*%
D20*
%TO.C,IC1*%
X126901767Y-73437147D03*
X126901767Y-73937147D03*
X126901767Y-74437147D03*
X126901767Y-74937147D03*
X126901767Y-75437147D03*
X126901767Y-75937147D03*
X126901767Y-76437147D03*
X126901767Y-76937147D03*
X126901767Y-77437147D03*
X126901767Y-77937147D03*
X126901767Y-78437147D03*
X126901767Y-78937147D03*
X126901767Y-79437147D03*
X126901767Y-79937147D03*
X126901767Y-80437147D03*
X126901767Y-80937147D03*
D21*
X128889767Y-82925147D03*
X129389767Y-82925147D03*
X129889767Y-82925147D03*
X130389767Y-82925147D03*
X130889767Y-82925147D03*
X131389767Y-82925147D03*
X131889767Y-82925147D03*
X132389767Y-82925147D03*
X132889767Y-82925147D03*
X133389767Y-82925147D03*
X133889767Y-82925147D03*
X134389767Y-82925147D03*
X134889767Y-82925147D03*
X135389767Y-82925147D03*
X135889767Y-82925147D03*
X136389767Y-82925147D03*
D20*
X138377767Y-80937147D03*
X138377767Y-80437147D03*
X138377767Y-79937147D03*
X138377767Y-79437147D03*
X138377767Y-78937147D03*
X138377767Y-78437147D03*
X138377767Y-77937147D03*
X138377767Y-77437147D03*
X138377767Y-76937147D03*
X138377767Y-76437147D03*
X138377767Y-75937147D03*
X138377767Y-75437147D03*
X138377767Y-74937147D03*
X138377767Y-74437147D03*
X138377767Y-73937147D03*
X138377767Y-73437147D03*
D21*
X136389767Y-71449147D03*
X135889767Y-71449147D03*
X135389767Y-71449147D03*
X134889767Y-71449147D03*
X134389767Y-71449147D03*
X133889767Y-71449147D03*
X133389767Y-71449147D03*
X132889767Y-71449147D03*
X132389767Y-71449147D03*
X131889767Y-71449147D03*
X131389767Y-71449147D03*
X130889767Y-71449147D03*
X130389767Y-71449147D03*
X129889767Y-71449147D03*
X129389767Y-71449147D03*
X128889767Y-71449147D03*
%TD*%
D11*
%TO.C,H4*%
X176433274Y-93583274D03*
X176916548Y-92416548D03*
X176916548Y-94750000D03*
X178083274Y-91933274D03*
D12*
X178083274Y-93583274D03*
D11*
X178083274Y-95233274D03*
X179250000Y-92416548D03*
X179250000Y-94750000D03*
X179733274Y-93583274D03*
%TD*%
D16*
%TO.C,C22*%
X167925000Y-69537500D03*
X167925000Y-67812500D03*
%TD*%
D22*
%TO.C,R4*%
X173512500Y-77725000D03*
X171687500Y-77725000D03*
%TD*%
D23*
%TO.C,C4*%
X117750000Y-62775000D03*
X117750000Y-64500000D03*
%TD*%
D24*
%TO.C,Y2*%
X176487500Y-85105000D03*
X176487500Y-80025000D03*
X172487500Y-80025000D03*
X172487500Y-85105000D03*
%TD*%
D11*
%TO.C,H3*%
X101433274Y-93666726D03*
X101916548Y-92500000D03*
X101916548Y-94833452D03*
X103083274Y-92016726D03*
D12*
X103083274Y-93666726D03*
D11*
X103083274Y-95316726D03*
X104250000Y-92500000D03*
X104250000Y-94833452D03*
X104733274Y-93666726D03*
%TD*%
D14*
%TO.C,FB3*%
X122627767Y-77937147D03*
X124377767Y-77937147D03*
%TD*%
D13*
%TO.C,C29*%
X173825000Y-87425000D03*
X172100000Y-87425000D03*
%TD*%
D25*
%TO.C,J1*%
X106180000Y-71540000D03*
X106180000Y-77320000D03*
D26*
X107255000Y-71230000D03*
X107255000Y-72030000D03*
D27*
X107255000Y-73180000D03*
X107255000Y-74180000D03*
X107255000Y-74680000D03*
X107255000Y-75680000D03*
D26*
X107255000Y-76830000D03*
X107255000Y-77630000D03*
X107255000Y-77630000D03*
X107255000Y-76830000D03*
D27*
X107255000Y-76180000D03*
X107255000Y-75180000D03*
X107255000Y-73680000D03*
X107255000Y-72680000D03*
D26*
X107255000Y-72030000D03*
X107255000Y-71230000D03*
D28*
X106680000Y-70110000D03*
D29*
X102500000Y-70110000D03*
D28*
X106680000Y-78750000D03*
D29*
X102500000Y-78750000D03*
%TD*%
D19*
%TO.C,U2*%
X114225000Y-68000000D03*
X114225000Y-68950000D03*
X114225000Y-69900000D03*
X116500000Y-69900000D03*
X116500000Y-68950000D03*
X116500000Y-68000000D03*
%TD*%
D30*
%TO.C,J2*%
X145250000Y-69800000D03*
D31*
X145250000Y-72340000D03*
X145250000Y-74880000D03*
X145250000Y-77420000D03*
X145250000Y-79960000D03*
X145250000Y-82500000D03*
%TD*%
D13*
%TO.C,C28*%
X165750000Y-63750000D03*
X164025000Y-63750000D03*
%TD*%
D14*
%TO.C,FB6*%
X172075000Y-92225000D03*
X173825000Y-92225000D03*
%TD*%
%TO.C,D1*%
X119750000Y-86250000D03*
X121500000Y-86250000D03*
%TD*%
D32*
%TO.C,C17*%
X120408007Y-71467387D03*
X121627767Y-72687147D03*
%TD*%
D19*
%TO.C,U4*%
X115225000Y-82500000D03*
X115225000Y-83450000D03*
X115225000Y-84400000D03*
X117500000Y-84400000D03*
X117500000Y-82500000D03*
%TD*%
D33*
%TO.C,F1*%
X109500000Y-78675000D03*
X109500000Y-80500000D03*
%TD*%
D34*
%TO.C,R10*%
X131227767Y-68312147D03*
X131227767Y-66487147D03*
%TD*%
D35*
%TO.C,U8*%
X169412500Y-71137500D03*
X168912500Y-71137500D03*
X168412500Y-71137500D03*
X167912500Y-71137500D03*
X167412500Y-71137500D03*
X166912500Y-71137500D03*
X166412500Y-71137500D03*
X165912500Y-71137500D03*
X165412500Y-71137500D03*
X164912500Y-71137500D03*
X164412500Y-71137500D03*
X163912500Y-71137500D03*
D36*
X163225000Y-71825000D03*
X163225000Y-72325000D03*
X163225000Y-72825000D03*
X163225000Y-73325000D03*
X163225000Y-73825000D03*
X163225000Y-74325000D03*
X163225000Y-74825000D03*
X163225000Y-75325000D03*
X163225000Y-75825000D03*
X163225000Y-76325000D03*
X163225000Y-76825000D03*
X163225000Y-77325000D03*
D35*
X163912500Y-78012500D03*
X164412500Y-78012500D03*
X164912500Y-78012500D03*
X165412500Y-78012500D03*
X165912500Y-78012500D03*
X166412500Y-78012500D03*
X166912500Y-78012500D03*
X167412500Y-78012500D03*
X167912500Y-78012500D03*
X168412500Y-78012500D03*
X168912500Y-78012500D03*
X169412500Y-78012500D03*
D36*
X170100000Y-77325000D03*
X170100000Y-76825000D03*
X170100000Y-76325000D03*
X170100000Y-75825000D03*
X170100000Y-75325000D03*
X170100000Y-74825000D03*
X170100000Y-74325000D03*
X170100000Y-73825000D03*
X170100000Y-73325000D03*
X170100000Y-72825000D03*
X170100000Y-72325000D03*
X170100000Y-71825000D03*
D37*
X166662500Y-74575000D03*
%TD*%
D38*
%TO.C,U5*%
X126329742Y-65385173D03*
X127227767Y-64487147D03*
X128125793Y-63589121D03*
X129023819Y-62691096D03*
X125523640Y-59190917D03*
X124625615Y-60088943D03*
X123727589Y-60986969D03*
X122829563Y-61884994D03*
%TD*%
D13*
%TO.C,C5*%
X173825000Y-90625000D03*
X172100000Y-90625000D03*
%TD*%
%TO.C,C6*%
X173825000Y-89025000D03*
X172100000Y-89025000D03*
%TD*%
D39*
%TO.C,R8*%
X119418237Y-75477617D03*
X118127767Y-74187147D03*
%TD*%
D18*
%TO.C,D7*%
X180250000Y-76675000D03*
X180250000Y-78425000D03*
%TD*%
D33*
%TO.C,R3*%
X121500000Y-82587500D03*
X121500000Y-84412500D03*
%TD*%
D40*
%TO.C,SW1*%
X161550000Y-66250000D03*
X165750000Y-66250000D03*
%TD*%
D41*
%TO.C,C18*%
X126127767Y-68187147D03*
X124908007Y-66967387D03*
%TD*%
D17*
%TO.C,R21*%
X140302767Y-77987147D03*
X142127767Y-77987147D03*
%TD*%
D42*
%TO.C,Y3*%
X123731321Y-68679431D03*
X122175686Y-70235066D03*
X123377767Y-71437147D03*
X124933402Y-69881512D03*
%TD*%
D15*
%TO.C,C19*%
X137502767Y-69487147D03*
X139227767Y-69487147D03*
%TD*%
D13*
%TO.C,C31*%
X152975000Y-67250000D03*
X151250000Y-67250000D03*
%TD*%
D43*
%TO.C,C20*%
X121227767Y-62487147D03*
X120008007Y-63706907D03*
%TD*%
D34*
%TO.C,R6*%
X112000000Y-72000000D03*
X112000000Y-70175000D03*
%TD*%
D17*
%TO.C,R22*%
X140302767Y-79587147D03*
X142127767Y-79587147D03*
%TD*%
D22*
%TO.C,R5*%
X116575000Y-66250000D03*
X114750000Y-66250000D03*
%TD*%
D23*
%TO.C,C10*%
X130377767Y-84937147D03*
X130377767Y-86662147D03*
%TD*%
%TO.C,C7*%
X124877767Y-79687147D03*
X124877767Y-81412147D03*
%TD*%
D18*
%TO.C,FB5*%
X165250000Y-81000000D03*
X165250000Y-82750000D03*
%TD*%
D13*
%TO.C,C32*%
X152975000Y-65500000D03*
X151250000Y-65500000D03*
%TD*%
D44*
%TO.C,U1*%
X158849500Y-64060000D03*
X158849500Y-62790000D03*
X158849500Y-61520000D03*
X158849500Y-60250000D03*
X153500000Y-60250000D03*
X153500000Y-61520000D03*
X153500000Y-62790000D03*
X153500000Y-64060000D03*
%TD*%
D23*
%TO.C,C1*%
X113000000Y-82500000D03*
X113000000Y-84225000D03*
%TD*%
D41*
%TO.C,C15*%
X120627767Y-74187147D03*
X119408007Y-72967387D03*
%TD*%
D23*
%TO.C,C14*%
X120877767Y-78437147D03*
X120877767Y-80162147D03*
%TD*%
D34*
%TO.C,F2*%
X109500000Y-69825000D03*
X109500000Y-68000000D03*
%TD*%
D11*
%TO.C,H1*%
X101433274Y-59333274D03*
X101916548Y-58166548D03*
X101916548Y-60500000D03*
X103083274Y-57683274D03*
D12*
X103083274Y-59333274D03*
D11*
X103083274Y-60983274D03*
X104250000Y-58166548D03*
X104250000Y-60500000D03*
X104733274Y-59333274D03*
%TD*%
D45*
%TO.C,R11*%
X129182532Y-65632382D03*
X130473002Y-64341912D03*
%TD*%
D23*
%TO.C,C2*%
X119500000Y-82637500D03*
X119500000Y-84362500D03*
%TD*%
D14*
%TO.C,D5*%
X175250000Y-76625000D03*
X177000000Y-76625000D03*
%TD*%
%TO.C,FB2*%
X109500000Y-66000000D03*
X111250000Y-66000000D03*
%TD*%
D23*
%TO.C,C11*%
X135877767Y-84962147D03*
X135877767Y-86687147D03*
%TD*%
D30*
%TO.C,J3*%
X183000000Y-91000000D03*
D31*
X183000000Y-88460000D03*
X183000000Y-85920000D03*
X183000000Y-83380000D03*
X183000000Y-80840000D03*
X183000000Y-78300000D03*
X183000000Y-75760000D03*
X183000000Y-73220000D03*
X183000000Y-70680000D03*
X183000000Y-68140000D03*
X183000000Y-65600000D03*
X183000000Y-63060000D03*
X183000000Y-60520000D03*
%TD*%
D30*
%TO.C,J4*%
X124650000Y-92500000D03*
D31*
X127190000Y-92500000D03*
X129730000Y-92500000D03*
X132270000Y-92500000D03*
X134810000Y-92500000D03*
X137350000Y-92500000D03*
X139890000Y-92500000D03*
X142430000Y-92500000D03*
X144970000Y-92500000D03*
X147510000Y-92500000D03*
X150050000Y-92500000D03*
X152590000Y-92500000D03*
X155130000Y-92500000D03*
X157670000Y-92500000D03*
X160210000Y-92500000D03*
X162750000Y-92500000D03*
%TD*%
M02*
