%TF.GenerationSoftware,KiCad,Pcbnew,9.0.8*%
%TF.CreationDate,2026-08-11T07:52:59+05:30*%
%TF.ProjectId,FPGA BOARD,46504741-2042-44f4-9152-442e6b696361,rev?*%
%TF.SameCoordinates,Original*%
%TF.FileFunction,Legend,Bot*%
%TF.FilePolarity,Positive*%
%FSLAX46Y46*%
G04 Gerber Fmt 4.6, Leading zero omitted, Abs format (unit mm)*
G04 Created by KiCad (PCBNEW 9.0.8) date 2026-08-11 07:52:59*
%MOMM*%
%LPD*%
G01*
G04 APERTURE LIST*
%ADD10C,0.120000*%
G04 APERTURE END LIST*
D10*
%TO.C,R16*%
X179727500Y-79592224D02*
X179727500Y-79082776D01*
X180772500Y-79592224D02*
X180772500Y-79082776D01*
%TO.C,C26*%
X171016233Y-70615000D02*
X171308767Y-70615000D01*
X171016233Y-71635000D02*
X171308767Y-71635000D01*
%TO.C,R14*%
X165229724Y-63902500D02*
X164720276Y-63902500D01*
X165229724Y-64947500D02*
X164720276Y-64947500D01*
%TO.C,R15*%
X178127500Y-79070276D02*
X178127500Y-79579724D01*
X179172500Y-79070276D02*
X179172500Y-79579724D01*
%TO.C,R19*%
X161042224Y-72802500D02*
X160532776Y-72802500D01*
X161042224Y-73847500D02*
X160532776Y-73847500D01*
%TO.C,C30*%
X165890000Y-80216233D02*
X165890000Y-80508767D01*
X166910000Y-80216233D02*
X166910000Y-80508767D01*
%TO.C,D2*%
X132392767Y-61652147D02*
X134852767Y-61652147D01*
X132392767Y-63122147D02*
X132392767Y-61652147D01*
X134852767Y-63122147D02*
X132392767Y-63122147D01*
%TO.C,C8*%
X135817767Y-79803380D02*
X135817767Y-80095914D01*
X136837767Y-79803380D02*
X136837767Y-80095914D01*
%TO.C,D4*%
X166740000Y-63702500D02*
X168210000Y-63702500D01*
X166740000Y-66162500D02*
X166740000Y-63702500D01*
X168210000Y-63702500D02*
X168210000Y-66162500D01*
%TO.C,C25*%
X167740000Y-80353733D02*
X167740000Y-80646267D01*
X168760000Y-80353733D02*
X168760000Y-80646267D01*
%TO.C,R9*%
X129560543Y-79464647D02*
X130069991Y-79464647D01*
X129560543Y-80509647D02*
X130069991Y-80509647D01*
%TO.C,C27*%
X160983767Y-76490000D02*
X160691233Y-76490000D01*
X160983767Y-77510000D02*
X160691233Y-77510000D01*
%TO.C,TP3*%
X153200000Y-84500000D02*
G75*
G02*
X151300000Y-84500000I-950000J0D01*
G01*
X151300000Y-84500000D02*
G75*
G02*
X153200000Y-84500000I950000J0D01*
G01*
%TO.C,R2*%
X104592224Y-75477500D02*
X104082776Y-75477500D01*
X104592224Y-76522500D02*
X104082776Y-76522500D01*
%TO.C,R23*%
X131005267Y-63529371D02*
X131005267Y-63019923D01*
X132050267Y-63529371D02*
X132050267Y-63019923D01*
%TO.C,J3*%
X181730000Y-91000000D02*
X181730000Y-92270000D01*
X181730000Y-92270000D02*
X183000000Y-92270000D01*
X184077358Y-60090000D02*
X184390000Y-60090000D01*
X184077358Y-60950000D02*
X184390000Y-60950000D01*
X184077358Y-62630000D02*
X184390000Y-62630000D01*
X184077358Y-63490000D02*
X184390000Y-63490000D01*
X184077358Y-65170000D02*
X184390000Y-65170000D01*
X184077358Y-66030000D02*
X184390000Y-66030000D01*
X184077358Y-67710000D02*
X184390000Y-67710000D01*
X184077358Y-68570000D02*
X184390000Y-68570000D01*
X184077358Y-70250000D02*
X184390000Y-70250000D01*
X184077358Y-71110000D02*
X184390000Y-71110000D01*
X184077358Y-72790000D02*
X184390000Y-72790000D01*
X184077358Y-73650000D02*
X184390000Y-73650000D01*
X184077358Y-75330000D02*
X184390000Y-75330000D01*
X184077358Y-76190000D02*
X184390000Y-76190000D01*
X184077358Y-77870000D02*
X184390000Y-77870000D01*
X184077358Y-78730000D02*
X184390000Y-78730000D01*
X184077358Y-80410000D02*
X184390000Y-80410000D01*
X184077358Y-81270000D02*
X184390000Y-81270000D01*
X184077358Y-82950000D02*
X184390000Y-82950000D01*
X184077358Y-83810000D02*
X184390000Y-83810000D01*
X184077358Y-85490000D02*
X184390000Y-85490000D01*
X184077358Y-86350000D02*
X184390000Y-86350000D01*
X184077358Y-88030000D02*
X184390000Y-88030000D01*
X184077358Y-88890000D02*
X184390000Y-88890000D01*
X184160000Y-90570000D02*
X184390000Y-90570000D01*
X184160000Y-91430000D02*
X184390000Y-91430000D01*
X184390000Y-61790000D02*
X187150000Y-61790000D01*
X184390000Y-64330000D02*
X187150000Y-64330000D01*
X184390000Y-66870000D02*
X187150000Y-66870000D01*
X184390000Y-69410000D02*
X187150000Y-69410000D01*
X184390000Y-71950000D02*
X187150000Y-71950000D01*
X184390000Y-74490000D02*
X187150000Y-74490000D01*
X184390000Y-77030000D02*
X187150000Y-77030000D01*
X184390000Y-79570000D02*
X187150000Y-79570000D01*
X184390000Y-82110000D02*
X187150000Y-82110000D01*
X184390000Y-84650000D02*
X187150000Y-84650000D01*
X184390000Y-87190000D02*
X187150000Y-87190000D01*
X184390000Y-89730000D02*
X187150000Y-89730000D01*
X187150000Y-60950000D02*
X193150000Y-60950000D01*
X187150000Y-63490000D02*
X193150000Y-63490000D01*
X187150000Y-66030000D02*
X193150000Y-66030000D01*
X187150000Y-68570000D02*
X193150000Y-68570000D01*
X187150000Y-71110000D02*
X193150000Y-71110000D01*
X187150000Y-73650000D02*
X193150000Y-73650000D01*
X187150000Y-76190000D02*
X193150000Y-76190000D01*
X187150000Y-78730000D02*
X193150000Y-78730000D01*
X187150000Y-81270000D02*
X193150000Y-81270000D01*
X187150000Y-83810000D02*
X193150000Y-83810000D01*
X187150000Y-86350000D02*
X193150000Y-86350000D01*
X187150000Y-88890000D02*
X193150000Y-88890000D01*
X193150000Y-60090000D02*
X187150000Y-60090000D01*
X193150000Y-60950000D02*
X193150000Y-60090000D01*
X193150000Y-62630000D02*
X187150000Y-62630000D01*
X193150000Y-63490000D02*
X193150000Y-62630000D01*
X193150000Y-65170000D02*
X187150000Y-65170000D01*
X193150000Y-66030000D02*
X193150000Y-65170000D01*
X193150000Y-67710000D02*
X187150000Y-67710000D01*
X193150000Y-68570000D02*
X193150000Y-67710000D01*
X193150000Y-70250000D02*
X187150000Y-70250000D01*
X193150000Y-71110000D02*
X193150000Y-70250000D01*
X193150000Y-72790000D02*
X187150000Y-72790000D01*
X193150000Y-73650000D02*
X193150000Y-72790000D01*
X193150000Y-75330000D02*
X187150000Y-75330000D01*
X193150000Y-76190000D02*
X193150000Y-75330000D01*
X193150000Y-77870000D02*
X187150000Y-77870000D01*
X193150000Y-78730000D02*
X193150000Y-77870000D01*
X193150000Y-80410000D02*
X187150000Y-80410000D01*
X193150000Y-81270000D02*
X193150000Y-80410000D01*
X193150000Y-82950000D02*
X187150000Y-82950000D01*
X193150000Y-83810000D02*
X193150000Y-82950000D01*
X193150000Y-85490000D02*
X187150000Y-85490000D01*
X193150000Y-86350000D02*
X193150000Y-85490000D01*
X193150000Y-88030000D02*
X187150000Y-88030000D01*
X193150000Y-88890000D02*
X193150000Y-88030000D01*
X184390000Y-92380000D02*
X187150000Y-92380000D01*
X187150000Y-59140000D01*
X184390000Y-59140000D01*
X184390000Y-92380000D01*
X187150000Y-91430000D02*
X193150000Y-91430000D01*
X193150000Y-90570000D01*
X187150000Y-90570000D01*
X187150000Y-91430000D01*
G36*
X187150000Y-91430000D02*
G01*
X193150000Y-91430000D01*
X193150000Y-90570000D01*
X187150000Y-90570000D01*
X187150000Y-91430000D01*
G37*
%TO.C,TP2*%
X115700000Y-66250000D02*
G75*
G02*
X113800000Y-66250000I-950000J0D01*
G01*
X113800000Y-66250000D02*
G75*
G02*
X115700000Y-66250000I950000J0D01*
G01*
%TO.C,C9*%
X127211534Y-70877147D02*
X126919000Y-70877147D01*
X127211534Y-71897147D02*
X126919000Y-71897147D01*
%TO.C,D3*%
X108565000Y-74585000D02*
X108565000Y-72125000D01*
X110035000Y-72125000D02*
X110035000Y-74585000D01*
X110035000Y-74585000D02*
X108565000Y-74585000D01*
%TO.C,R13*%
X155160411Y-77162719D02*
X154650963Y-77162719D01*
X155160411Y-78207719D02*
X154650963Y-78207719D01*
%TO.C,R7*%
X176477500Y-77332776D02*
X176477500Y-77842224D01*
X177522500Y-77332776D02*
X177522500Y-77842224D01*
%TO.C,J4*%
X123380000Y-91230000D02*
X123380000Y-92500000D01*
X124220000Y-93660000D02*
X124220000Y-93890000D01*
X124650000Y-91230000D02*
X123380000Y-91230000D01*
X125080000Y-93660000D02*
X125080000Y-93890000D01*
X125920000Y-93890000D02*
X125920000Y-96650000D01*
X126760000Y-93577358D02*
X126760000Y-93890000D01*
X126760000Y-96650000D02*
X126760000Y-102650000D01*
X126760000Y-102650000D02*
X127620000Y-102650000D01*
X127620000Y-93577358D02*
X127620000Y-93890000D01*
X127620000Y-102650000D02*
X127620000Y-96650000D01*
X128460000Y-93890000D02*
X128460000Y-96650000D01*
X129300000Y-93577358D02*
X129300000Y-93890000D01*
X129300000Y-96650000D02*
X129300000Y-102650000D01*
X129300000Y-102650000D02*
X130160000Y-102650000D01*
X130160000Y-93577358D02*
X130160000Y-93890000D01*
X130160000Y-102650000D02*
X130160000Y-96650000D01*
X131000000Y-93890000D02*
X131000000Y-96650000D01*
X131840000Y-93577358D02*
X131840000Y-93890000D01*
X131840000Y-96650000D02*
X131840000Y-102650000D01*
X131840000Y-102650000D02*
X132700000Y-102650000D01*
X132700000Y-93577358D02*
X132700000Y-93890000D01*
X132700000Y-102650000D02*
X132700000Y-96650000D01*
X133540000Y-93890000D02*
X133540000Y-96650000D01*
X134380000Y-93577358D02*
X134380000Y-93890000D01*
X134380000Y-96650000D02*
X134380000Y-102650000D01*
X134380000Y-102650000D02*
X135240000Y-102650000D01*
X135240000Y-93577358D02*
X135240000Y-93890000D01*
X135240000Y-102650000D02*
X135240000Y-96650000D01*
X136080000Y-93890000D02*
X136080000Y-96650000D01*
X136920000Y-93577358D02*
X136920000Y-93890000D01*
X136920000Y-96650000D02*
X136920000Y-102650000D01*
X136920000Y-102650000D02*
X137780000Y-102650000D01*
X137780000Y-93577358D02*
X137780000Y-93890000D01*
X137780000Y-102650000D02*
X137780000Y-96650000D01*
X138620000Y-93890000D02*
X138620000Y-96650000D01*
X139460000Y-93577358D02*
X139460000Y-93890000D01*
X139460000Y-96650000D02*
X139460000Y-102650000D01*
X139460000Y-102650000D02*
X140320000Y-102650000D01*
X140320000Y-93577358D02*
X140320000Y-93890000D01*
X140320000Y-102650000D02*
X140320000Y-96650000D01*
X141160000Y-93890000D02*
X141160000Y-96650000D01*
X142000000Y-93577358D02*
X142000000Y-93890000D01*
X142000000Y-96650000D02*
X142000000Y-102650000D01*
X142000000Y-102650000D02*
X142860000Y-102650000D01*
X142860000Y-93577358D02*
X142860000Y-93890000D01*
X142860000Y-102650000D02*
X142860000Y-96650000D01*
X143700000Y-93890000D02*
X143700000Y-96650000D01*
X144540000Y-93577358D02*
X144540000Y-93890000D01*
X144540000Y-96650000D02*
X144540000Y-102650000D01*
X144540000Y-102650000D02*
X145400000Y-102650000D01*
X145400000Y-93577358D02*
X145400000Y-93890000D01*
X145400000Y-102650000D02*
X145400000Y-96650000D01*
X146240000Y-93890000D02*
X146240000Y-96650000D01*
X147080000Y-93577358D02*
X147080000Y-93890000D01*
X147080000Y-96650000D02*
X147080000Y-102650000D01*
X147080000Y-102650000D02*
X147940000Y-102650000D01*
X147940000Y-93577358D02*
X147940000Y-93890000D01*
X147940000Y-102650000D02*
X147940000Y-96650000D01*
X148780000Y-93890000D02*
X148780000Y-96650000D01*
X149620000Y-93577358D02*
X149620000Y-93890000D01*
X149620000Y-96650000D02*
X149620000Y-102650000D01*
X149620000Y-102650000D02*
X150480000Y-102650000D01*
X150480000Y-93577358D02*
X150480000Y-93890000D01*
X150480000Y-102650000D02*
X150480000Y-96650000D01*
X151320000Y-93890000D02*
X151320000Y-96650000D01*
X152160000Y-93577358D02*
X152160000Y-93890000D01*
X152160000Y-96650000D02*
X152160000Y-102650000D01*
X152160000Y-102650000D02*
X153020000Y-102650000D01*
X153020000Y-93577358D02*
X153020000Y-93890000D01*
X153020000Y-102650000D02*
X153020000Y-96650000D01*
X153860000Y-93890000D02*
X153860000Y-96650000D01*
X154700000Y-93577358D02*
X154700000Y-93890000D01*
X154700000Y-96650000D02*
X154700000Y-102650000D01*
X154700000Y-102650000D02*
X155560000Y-102650000D01*
X155560000Y-93577358D02*
X155560000Y-93890000D01*
X155560000Y-102650000D02*
X155560000Y-96650000D01*
X156400000Y-93890000D02*
X156400000Y-96650000D01*
X157240000Y-93577358D02*
X157240000Y-93890000D01*
X157240000Y-96650000D02*
X157240000Y-102650000D01*
X157240000Y-102650000D02*
X158100000Y-102650000D01*
X158100000Y-93577358D02*
X158100000Y-93890000D01*
X158100000Y-102650000D02*
X158100000Y-96650000D01*
X158940000Y-93890000D02*
X158940000Y-96650000D01*
X159780000Y-93577358D02*
X159780000Y-93890000D01*
X159780000Y-96650000D02*
X159780000Y-102650000D01*
X159780000Y-102650000D02*
X160640000Y-102650000D01*
X160640000Y-93577358D02*
X160640000Y-93890000D01*
X160640000Y-102650000D02*
X160640000Y-96650000D01*
X161480000Y-93890000D02*
X161480000Y-96650000D01*
X162320000Y-93577358D02*
X162320000Y-93890000D01*
X162320000Y-96650000D02*
X162320000Y-102650000D01*
X162320000Y-102650000D02*
X163180000Y-102650000D01*
X163180000Y-93577358D02*
X163180000Y-93890000D01*
X163180000Y-102650000D02*
X163180000Y-96650000D01*
X123270000Y-93890000D02*
X164130000Y-93890000D01*
X164130000Y-96650000D01*
X123270000Y-96650000D01*
X123270000Y-93890000D01*
X124220000Y-96650000D02*
X125080000Y-96650000D01*
X125080000Y-102650000D01*
X124220000Y-102650000D01*
X124220000Y-96650000D01*
G36*
X124220000Y-96650000D02*
G01*
X125080000Y-96650000D01*
X125080000Y-102650000D01*
X124220000Y-102650000D01*
X124220000Y-96650000D01*
G37*
%TO.C,R17*%
X108777500Y-76032776D02*
X108777500Y-76542224D01*
X109822500Y-76032776D02*
X109822500Y-76542224D01*
%TO.C,R1*%
X104667224Y-72727500D02*
X104157776Y-72727500D01*
X104667224Y-73772500D02*
X104157776Y-73772500D01*
%TO.C,C12*%
X135817767Y-75670914D02*
X135817767Y-75378380D01*
X136837767Y-75670914D02*
X136837767Y-75378380D01*
%TO.C,R12*%
X151250963Y-78362719D02*
X151760411Y-78362719D01*
X151250963Y-79407719D02*
X151760411Y-79407719D01*
%TO.C,TP1*%
X120450000Y-82500000D02*
G75*
G02*
X118550000Y-82500000I-950000J0D01*
G01*
X118550000Y-82500000D02*
G75*
G02*
X120450000Y-82500000I950000J0D01*
G01*
%TO.C,R18*%
X162977500Y-67254724D02*
X162977500Y-66745276D01*
X164022500Y-67254724D02*
X164022500Y-66745276D01*
%TD*%
M02*
